<svg width="82" height="82" viewBox="0 0 82 82" fill="none" xmlns="http://www.w3.org/2000/svg">
<rect width="82" height="82" rx="10.9333" fill="white"/>
<path d="M34.5311 38.4261C34.3033 38.4033 34.03 38.4033 33.7795 38.4261C28.3583 38.2438 24.0533 33.8022 24.0533 28.3355C24.0533 22.7549 28.5633 18.2222 34.1667 18.2222C39.7472 18.2222 44.28 22.7549 44.28 28.3355C44.2572 33.8022 39.9522 38.2438 34.5311 38.4261Z" stroke="#345215" stroke-width="3.41667" stroke-linecap="round" stroke-linejoin="round"/>
<path d="M51.045 22.7778C55.4639 22.7778 59.0172 26.3539 59.0172 30.7501C59.0172 35.0551 55.6006 38.5628 51.3411 38.7223C51.1589 38.6995 50.9539 38.6995 50.7489 38.7223" stroke="#345215" stroke-width="3.41667" stroke-linecap="round" stroke-linejoin="round"/>
<path d="M23.1422 46.8313C17.63 50.5213 17.63 56.5347 23.1422 60.2019C29.4061 64.393 39.6789 64.393 45.9428 60.2019C51.455 56.5119 51.455 50.4986 45.9428 46.8313C39.7017 42.663 29.4289 42.663 23.1422 46.8313Z" stroke="#345215" stroke-width="3.41667" stroke-linecap="round" stroke-linejoin="round"/>
<path d="M55.4412 59.2223C57.0812 58.8807 58.63 58.2201 59.9056 57.2407C63.4589 54.5757 63.4589 50.1796 59.9056 47.5146C58.6528 46.5579 57.1267 45.9201 55.5095 45.5557" stroke="#345215" stroke-width="3.41667" stroke-linecap="round" stroke-linejoin="round"/>
</svg>
