<svg width="16" height="17" viewBox="0 0 16 17" fill="none" xmlns="http://www.w3.org/2000/svg">
<circle cx="8.0001" cy="8.91407" r="7.4" stroke="white" stroke-width="1.2"/>
<path d="M7.57142 1.5139C5.81989 1.5139 4.39999 4.827 4.39999 8.9139C4.39999 13.0008 5.81989 16.3139 7.57142 16.3139" stroke="white" stroke-width="1.2" stroke-linecap="round"/>
<path d="M8.39995 1.5139C10.1515 1.5139 11.5714 4.827 11.5714 8.9139C11.5714 13.0008 10.1515 16.3139 8.39995 16.3139" stroke="white" stroke-width="1.2" stroke-linecap="round"/>
<path d="M0.600085 9.34264C0.600085 11.0942 3.91318 12.5141 8.00009 12.5141C12.087 12.5141 15.4001 11.0942 15.4001 9.34264" stroke="white" stroke-width="1.2" stroke-linecap="round"/>
<path d="M0.600085 8.51411C0.600085 6.76258 3.91318 5.34268 8.00009 5.34268C12.087 5.34268 15.4001 6.76258 15.4001 8.51411" stroke="white" stroke-width="1.2" stroke-linecap="round"/>
</svg>
