<svg width="88" height="87" viewBox="0 0 88 87" fill="none" xmlns="http://www.w3.org/2000/svg">
<rect x="0.799927" y="0.100098" width="86.4" height="86.4" rx="43.2" fill="#F4F5F7"/>
<g clip-path="url(#clip0_1252_158)">
<path d="M57.9198 30.3401C57.6798 30.1001 57.1998 30.1001 56.8398 30.1001L49.9998 32.1401V56.2601L57.5598 54.1001C58.0398 53.9801 58.3998 53.5001 58.3998 52.9001V31.3001C58.3998 30.9401 58.2798 30.5801 57.9198 30.3401Z" fill="#C9CCBD"/>
<path d="M47.5998 32.1401L40.3998 30.3401V54.4601L47.5998 56.2601V32.1401Z" fill="#2EC5CE"/>
<path d="M37.9998 30.3401L30.4398 32.5001C29.9598 32.7401 29.5998 33.2201 29.5998 33.7001V55.3001C29.5998 55.6601 29.7198 56.0201 30.0798 56.2601C30.3198 56.3801 30.5598 56.5001 30.7998 56.5001H31.1598L37.9998 54.4601V30.3401Z" fill="#219653"/>
</g>
<defs>
<clipPath id="clip0_1252_158">
<rect width="28.8" height="28.8" fill="white" transform="translate(29.5999 28.9001)"/>
</clipPath>
</defs>
</svg>
