<svg width="88" height="88" viewBox="0 0 88 88" fill="none" xmlns="http://www.w3.org/2000/svg">
<rect x="0.799927" y="0.899902" width="86.4" height="86.4" rx="43.2" fill="#F4F5F7"/>
<g clip-path="url(#clip0_1252_138)">
<path d="M51.1999 41.6999H58.3999L54.7999 36.8999L51.1999 41.6999ZM51.1999 46.4999H58.3999L54.7999 51.2999L51.1999 46.4999Z" fill="#C9CCBD"/>
<path d="M30.7999 29.7H37.9999V58.5H30.7999C30.4817 58.5 30.1764 58.3735 29.9514 58.1485C29.7263 57.9234 29.5999 57.6182 29.5999 57.3V30.9C29.5999 30.5817 29.7263 30.2765 29.9514 30.0514C30.1764 29.8264 30.4817 29.7 30.7999 29.7Z" fill="#219653"/>
<path d="M40.3998 29.7H47.5998C47.9181 29.7 48.2233 29.8264 48.4484 30.0514C48.6734 30.2765 48.7998 30.5817 48.7998 30.9V57.3C48.7998 57.6182 48.6734 57.9234 48.4484 58.1485C48.2233 58.3735 47.9181 58.5 47.5998 58.5H40.3998V29.7Z" fill="#2EC5CE"/>
</g>
<defs>
<clipPath id="clip0_1252_138">
<rect width="28.8" height="28.8" fill="white" transform="translate(29.5999 29.7)"/>
</clipPath>
</defs>
</svg>
