<svg width="88" height="88" viewBox="0 0 88 88" fill="none" xmlns="http://www.w3.org/2000/svg">
<rect x="0.799927" y="0.899902" width="86.4" height="86.4" rx="43.2" fill="#F4F5F7"/>
<g clip-path="url(#clip0_1252_147)">
<path d="M54.7999 58.5H43.9999C43.6817 58.5 43.3764 58.3735 43.1514 58.1485C42.9264 57.9234 42.7999 57.6182 42.7999 57.3V54.9C42.7999 54.5817 42.9264 54.2765 43.1514 54.0514C43.3764 53.8264 43.6817 53.7 43.9999 53.7H54.7999C55.1182 53.7 55.4234 53.8264 55.6485 54.0514C55.8735 54.2765 55.9999 54.5817 55.9999 54.9V57.3C55.9999 57.6182 55.8735 57.9234 55.6485 58.1485C55.4234 58.3735 55.1182 58.5 54.7999 58.5Z" fill="#C9CCBD"/>
<path d="M54.7999 29.7H33.1999C32.8816 29.7 32.5764 29.8264 32.3514 30.0514C32.1263 30.2765 31.9999 30.5817 31.9999 30.9V33.3C31.9999 33.6182 32.1263 33.9234 32.3514 34.1485C32.5764 34.3735 32.8816 34.5 33.1999 34.5H54.7999C55.1181 34.5 55.4234 34.3735 55.6484 34.1485C55.8735 33.9234 55.9999 33.6182 55.9999 33.3V30.9C55.9999 30.5817 55.8735 30.2765 55.6484 30.0514C55.4234 29.8264 55.1181 29.7 54.7999 29.7Z" fill="#2EC5CE"/>
<path d="M54.7999 36.8999H33.1999C32.8817 36.8999 32.5765 37.0263 32.3514 37.2514C32.1264 37.4764 31.9999 37.7816 31.9999 38.0999V50.0999C31.9999 50.4182 32.1264 50.7234 32.3514 50.9484C32.5765 51.1735 32.8817 51.2999 33.1999 51.2999H54.7999C55.1182 51.2999 55.4234 51.1735 55.6485 50.9484C55.8735 50.7234 55.9999 50.4182 55.9999 50.0999V38.0999C55.9999 37.7816 55.8735 37.4764 55.6485 37.2514C55.4234 37.0263 55.1182 36.8999 54.7999 36.8999Z" fill="#219653"/>
</g>
<defs>
<clipPath id="clip0_1252_147">
<rect width="28.8" height="28.8" fill="white" transform="translate(29.5999 29.7)"/>
</clipPath>
</defs>
</svg>
