<svg width="88" height="87" viewBox="0 0 88 87" fill="none" xmlns="http://www.w3.org/2000/svg">
<rect x="0.799927" y="0.100098" width="86.4" height="86.4" rx="43.2" fill="#F4F5F7"/>
<path d="M40.3999 40.9001H31.9999C31.6816 40.9001 31.3764 40.7737 31.1514 40.5486C30.9263 40.3236 30.7999 40.0184 30.7999 39.7001V31.3001C30.7999 30.9818 30.9263 30.6766 31.1514 30.4516C31.3764 30.2265 31.6816 30.1001 31.9999 30.1001H40.3999C40.7181 30.1001 41.0234 30.2265 41.2484 30.4516C41.4735 30.6766 41.5999 30.9818 41.5999 31.3001V39.7001C41.5999 40.0184 41.4735 40.3236 41.2484 40.5486C41.0234 40.7737 40.7181 40.9001 40.3999 40.9001Z" fill="#219653"/>
<path d="M40.3999 56.5002H31.9999C31.6816 56.5002 31.3764 56.3738 31.1514 56.1487C30.9263 55.9237 30.7999 55.6185 30.7999 55.3002V46.9002C30.7999 46.5819 30.9263 46.2767 31.1514 46.0517C31.3764 45.8266 31.6816 45.7002 31.9999 45.7002H40.3999C40.7181 45.7002 41.0234 45.8266 41.2484 46.0517C41.4735 46.2767 41.5999 46.5819 41.5999 46.9002V55.3002C41.5999 55.6185 41.4735 55.9237 41.2484 56.1487C41.0234 56.3738 40.7181 56.5002 40.3999 56.5002Z" fill="#219653"/>
<path d="M45.1999 31.3H57.1999V33.7H45.1999V31.3Z" fill="#2EC5CE"/>
<path d="M57.1999 46.9001H45.1999V49.3001H57.1999V46.9001Z" fill="#2EC5CE"/>
<path d="M57.1999 52.9001H45.1999V55.3001H57.1999V52.9001Z" fill="#C9CCBD"/>
<path d="M57.1999 37.3H45.1999V39.7H57.1999V37.3Z" fill="#C9CCBD"/>
</svg>
